<svg width="24" height="24" viewBox="0 0 24 24" fill="none" xmlns="http://www.w3.org/2000/svg">
<circle cx="12" cy="12" r="12" fill="#00DB39"/>
<path d="M10.5113 17.5752L15.5709 16.2195L13.8886 9.941L9.441 7.50926L8.97031 8.28243C8.92638 8.35459 8.89838 8.44405 8.88632 8.55081C8.87425 8.65757 8.88008 8.75523 8.9038 8.84377L8.9491 9.01281L10.0686 10.9646L7.3111 11.7034C7.04125 11.7757 6.83102 11.9356 6.6804 12.183C6.52978 12.4304 6.48898 12.6829 6.558 12.9405L6.81681 13.9064C6.83191 13.9628 6.85441 14.0214 6.88432 14.0825C6.91422 14.1435 6.94937 14.1987 6.98977 14.2483L9.41999 17.2465C9.53902 17.3871 9.70217 17.4901 9.90946 17.5553C10.1167 17.6206 10.3174 17.6272 10.5113 17.5752ZM14.9005 9.66985L16.5828 15.9484L18.6067 15.4061L16.9244 9.12757L14.9005 9.66985Z" fill="#2B2B2B"/>
</svg>

